<?xml version="1.0" encoding="UTF-8" standalone="no"?>
<svg
   xmlns:dc="http://purl.org/dc/elements/1.1/"
   xmlns:cc="http://creativecommons.org/ns#"
   xmlns:rdf="http://www.w3.org/1999/02/22-rdf-syntax-ns#"
   xmlns:svg="http://www.w3.org/2000/svg"
   xmlns="http://www.w3.org/2000/svg"
   xmlns:sodipodi="http://sodipodi.sourceforge.net/DTD/sodipodi-0.dtd"
   xmlns:inkscape="http://www.inkscape.org/namespaces/inkscape"
   sodipodi:docname="desenhando.svg"
   inkscape:version="1.0 (4035a4fb49, 2020-05-01)"
   id="svg8"
   version="1.1"
   viewBox="0 0 210 297"
   height="297mm"
   width="210mm">
  <defs
     id="defs2" />
  <sodipodi:namedview
     inkscape:window-maximized="0"
     inkscape:window-y="0"
     inkscape:window-x="0"
     inkscape:window-height="728"
     inkscape:window-width="1366"
     showgrid="false"
     inkscape:document-rotation="0"
     inkscape:current-layer="g57"
     inkscape:document-units="mm"
     inkscape:cy="486.87368"
     inkscape:cx="632.74044"
     inkscape:zoom="0.49497475"
     inkscape:pageshadow="2"
     inkscape:pageopacity="0.0"
     borderopacity="1.0"
     bordercolor="#666666"
     pagecolor="#ffffff"
     id="base" />
  <metadata
     id="metadata5">
    <rdf:RDF>
      <cc:Work
         rdf:about="">
        <dc:format>image/svg+xml</dc:format>
        <dc:type
           rdf:resource="http://purl.org/dc/dcmitype/StillImage" />
        <dc:title></dc:title>
      </cc:Work>
    </rdf:RDF>
  </metadata>
  <g
     id="layer1"
     inkscape:groupmode="layer"
     inkscape:label="Layer 1">
    <g
       transform="matrix(0.09830075,0,0,0.08025354,-37.617787,62.435626)"
       id="g65">
      <g
         id="g57"
         transform="matrix(1.131733,0,0,1,-66.537155,0)">
        <g
           transform="matrix(1.0183363,0,0,1,-22.220975,-1438.6959)"
           id="g74">
          <rect
             transform="matrix(0.88360063,0,0,1,58.792279,2.8555332e-6)"
             y="677.14624"
             x="415.28421"
             height="1101.7997"
             width="2075.9089"
             id="rect46"
             style="fill:#ff0000;fill-rule:evenodd;stroke-width:0.337974" />
          <path
             transform="matrix(0.88360063,0,0,1,58.792279,2.8555332e-6)"
             id="path44"
             d="m 888.63069,1132.8502 c -9.01191,-2.4153 -20.29368,-6.8663 -25.0705,-9.8912 -8.59085,-5.4394 -8.71149,-7.0403 -11.1057,-147.48938 -1.3313,-78.0946 -0.87784,-154.9194 1.00791,-170.7216 3.35554,-28.1257 3.69304,-28.86493 16.00775,-35.0666 13.12855,-6.61137 35.68316,-11.20284 55.14033,-11.22483 17.10175,-0.0183 40.57551,7.37581 203.47902,64.10373 82.1359,28.6024 152.3797,52.4526 156.097,53.0005 6.0742,0.8953 6.9665,-3.8832 8.8107,-47.1747 1.5116,-35.4829 3.5546,-49.53593 7.7568,-53.35379 8.0218,-7.28755 43.0613,-16.58863 62.4941,-16.58863 10.9302,0 25.1097,2.71947 43.2314,8.29132 64.645,19.8761 449.8159,155.3642 465.926,163.8948 13.7636,7.2879 17.7836,11.0794 17.7836,16.7726 0,14.4201 -8.0873,17.5676 -347.9458,135.42268 -79.8473,27.6895 -151.0585,51.3616 -158.2474,52.6052 -27.4352,4.7456 -67.2693,-2.9821 -82.3818,-15.9817 -6.3147,-5.4315 -7.5533,-13.0156 -8.8795,-54.3668 -0.8475,-26.4299 -2.356,-48.0539 -3.3518,-48.0539 -0.996,0 -15.9946,5.0644 -33.3306,11.254 -52.5335,18.7573 -179.2749,62.9135 -246.1909,85.7712 -53.98845,18.4422 -66.12111,21.6747 -83.97529,22.3728 -14.49033,0.5681 -25.87776,-0.5252 -37.2548,-3.5757 z"
             style="font-variation-settings:normal;opacity:1;vector-effect:none;fill:#ffffff;fill-opacity:1;stroke-width:3.07532;stroke-linecap:butt;stroke-linejoin:miter;stroke-miterlimit:4;stroke-dasharray:none;stroke-dashoffset:0;stroke-opacity:1;stop-color:#000000;stop-opacity:1" />
          <text
             xml:space="preserve"
             style="font-style:normal;font-variant:normal;font-weight:normal;font-stretch:normal;font-size:530.441px;line-height:1.25;font-family:'Franklin Gothic Heavy';-inkscape-font-specification:'Franklin Gothic Heavy, ';fill:#ffffff;stroke-width:16.5763"
             x="597.60901"
             y="1364.6292"
             id="text50"
             transform="scale(0.83558118,1.1967718)"><tspan
               sodipodi:role="line"
               id="tspan48"
               x="597.60901"
               y="1364.6292"
               style="font-style:normal;font-variant:normal;font-weight:normal;font-stretch:normal;font-family:'Franklin Gothic Heavy';-inkscape-font-specification:'Franklin Gothic Heavy, ';fill:#ffffff;stroke-width:16.5763">Skipads</tspan></text>
          <rect
             style="fill:#ffffff;fill-rule:evenodd;stroke-width:0.262156"
             id="rect52"
             width="88.523552"
             height="1096.3556"
             x="1826.6758"
             y="676.88611" />
        </g>
      </g>
    </g>
  </g>
</svg>
